<?xml version="1.0" encoding="UTF-8"?>
<svg id="Layer_2" data-name="Layer 2" xmlns="http://www.w3.org/2000/svg" viewBox="0 0 226.39 226.89">
  <defs>
    <style>
      .cls-1, .cls-2, .cls-3, .cls-4 {
        fill: #fff;
      }

      .cls-2 {
        font-size: 45px;
      }

      .cls-2, .cls-3 {
        font-family: Odin-Bold, 'Odin Rounded';
        font-weight: 700;
      }

      .cls-5 {
        letter-spacing: -.17em;
      }

      .cls-6 {
        letter-spacing: -.07em;
      }

      .cls-7 {
        letter-spacing: -.14em;
      }

      .cls-3 {
        font-size: 24px;
        letter-spacing: .2em;
      }

      .cls-4 {
        stroke: #fff;
        stroke-miterlimit: 10;
        stroke-width: .75px;
      }
    </style>
  </defs>
  <g id="Layer_1-2" data-name="Layer 1">
    <path class="cls-1" d="M133.37,104.44h-45.13v-2.07c0-7.48-3.18-14.56-8.73-19.43-10.26-9-16.15-21.98-16.15-35.61s5.15-25.09,14.5-34.1C87.21,4.23,99.5-.45,112.51,.03c24.41,.92,44.37,20.76,45.45,45.15h0c.63,14.21-5.07,27.82-15.62,37.32-5.7,5.13-8.97,12.29-8.97,19.65v2.29Zm-42.14-3h39.15c.2-7.95,3.81-15.63,9.96-21.16,9.89-8.9,15.22-21.64,14.63-34.96h0c-1.01-22.85-19.71-41.42-42.57-42.29-12.17-.46-23.7,3.93-32.45,12.36-8.76,8.44-13.58,19.78-13.58,31.94,0,12.77,5.51,24.93,15.13,33.36,5.97,5.23,9.49,12.75,9.74,20.75Z"/>
    <path class="cls-1" d="M130.35,114.41h-39.33c-.83,0-1.5-.67-1.5-1.5s.67-1.5,1.5-1.5h39.33c.83,0,1.5,.67,1.5,1.5s-.67,1.5-1.5,1.5Z"/>
    <path class="cls-1" d="M126.49,124.38h-31.6c-.83,0-1.5-.67-1.5-1.5s.67-1.5,1.5-1.5h31.6c.83,0,1.5,.67,1.5,1.5s-.67,1.5-1.5,1.5Z"/>
    <path class="cls-1" d="M120.07,134.34h-18.76c-.83,0-1.5-.67-1.5-1.5s.67-1.5,1.5-1.5h18.76c.83,0,1.5,.67,1.5,1.5s-.67,1.5-1.5,1.5Z"/>
    <path class="cls-4" d="M130.2,42.6c-3.66,0-6.72,2.61-7.42,6.06h-20.12l-5.31-5.31v-8.29c3.45-.7,6.06-3.76,6.06-7.42,0-4.17-3.39-7.56-7.56-7.56s-7.56,3.39-7.56,7.56c0,3.66,2.61,6.72,6.06,7.42v9.53l7.07,7.07h8.65v10.13h-11.82c-.69-3.45-3.75-6.07-7.41-6.07-4.17,0-7.56,3.4-7.56,7.57s3.39,7.56,7.56,7.56c3.66,0,6.71-2.61,7.41-6.06h11.82v10.79c-3.45,.7-6.06,3.75-6.06,7.41,0,4.17,3.39,7.57,7.56,7.57s7.56-3.4,7.56-7.57c0-3.66-2.61-6.71-6.06-7.41v-23.92h9.71c.7,3.45,3.76,6.06,7.42,6.06,4.17,0,7.56-3.39,7.56-7.56s-3.39-7.56-7.56-7.56Zm-34.35-9.39c-.38,0-.76-.04-1.12-.11-2.53-.52-4.44-2.77-4.44-5.46,0-3.06,2.49-5.56,5.56-5.56s5.56,2.5,5.56,5.56c0,2.69-1.91,4.94-4.44,5.46-.36,.07-.74,.11-1.12,.11Zm.34,31.58c-.65,2.34-2.8,4.06-5.35,4.06-3.07,0-5.56-2.5-5.56-5.56s2.49-5.57,5.56-5.57c2.55,0,4.7,1.72,5.35,4.07,.14,.48,.21,.98,.21,1.5s-.07,1.02-.21,1.5Zm20.94,18.2c0,3.07-2.49,5.57-5.56,5.57s-5.56-2.5-5.56-5.57c0-2.54,1.72-4.7,4.06-5.35,.48-.14,.98-.21,1.5-.21s1.02,.07,1.5,.21c2.34,.65,4.06,2.81,4.06,5.35Zm13.07-27.27c-3.07,0-5.57-2.49-5.57-5.56s2.5-5.56,5.57-5.56,5.56,2.49,5.56,5.56-2.5,5.56-5.56,5.56Z"/>
    <text class="cls-2" transform="translate(0 179.91)"><tspan x="0" y="0">INN</tspan><tspan class="cls-6" x="63.27" y="0">O</tspan><tspan class="cls-5" x="93.82" y="0">V</tspan><tspan class="cls-7" x="116.1" y="0">A</tspan><tspan x="139.81" y="0">TIVE</tspan></text>
    <text class="cls-3" transform="translate(71.82 199.86)"><tspan x="0" y="0">MINDS</tspan></text>
  </g>
</svg>