<?xml version="1.0" encoding="UTF-8"?>
<svg id="Layer_2" data-name="Layer 2" xmlns="http://www.w3.org/2000/svg" viewBox="0 0 226.39 226.89">
  <defs>
    <style>
      .cls-1, .cls-2 {
        stroke-miterlimit: 10;
      }

      .cls-1, .cls-2, .cls-3 {
        stroke: #fff;
      }

      .cls-1, .cls-3 {
        fill: none;
        stroke-width: 3px;
      }

      .cls-4 {
        font-size: 24px;
        letter-spacing: .2em;
      }

      .cls-4, .cls-5 {
        font-family: Odin-Bold, 'Odin Rounded';
        font-weight: 700;
      }

      .cls-6 {
        letter-spacing: -.17em;
      }

      .cls-7 {
        letter-spacing: -.07em;
      }

      .cls-5 {
        font-size: 45px;
      }

      .cls-8 {
        letter-spacing: -.14em;
      }

      .cls-3 {
        stroke-linecap: round;
        stroke-linejoin: round;
      }
    </style>
  </defs>
  <g id="Layer_1-2" data-name="Layer 1">
    <path class="cls-1" d="M156.47,45.25c.63,14.35-5.33,27.32-15.13,36.14-5.92,5.33-9.47,12.8-9.47,20.76v.79h-42.13v-.57c0-7.86-3.33-15.37-9.24-20.55-9.59-8.4-15.64-20.74-15.64-34.49C64.86,21.43,86.34,.55,112.46,1.53c23.65,.89,42.97,20.08,44.01,43.72Z"/>
    <line class="cls-3" x1="91.02" y1="112.91" x2="130.35" y2="112.91"/>
    <line class="cls-3" x1="94.89" y1="122.88" x2="126.49" y2="122.88"/>
    <line class="cls-3" x1="101.3" y1="132.84" x2="120.07" y2="132.84"/>
    <path class="cls-2" d="M130.2,42.6c-3.66,0-6.72,2.61-7.42,6.06h-20.12l-5.31-5.31v-8.29c3.45-.7,6.06-3.76,6.06-7.42,0-4.17-3.39-7.56-7.56-7.56s-7.56,3.39-7.56,7.56c0,3.66,2.61,6.72,6.06,7.42v9.53l7.07,7.07h8.65v10.13h-11.82c-.69-3.45-3.75-6.07-7.41-6.07-4.17,0-7.56,3.4-7.56,7.57s3.39,7.56,7.56,7.56c3.66,0,6.71-2.61,7.41-6.06h11.82v10.79c-3.45,.7-6.06,3.75-6.06,7.41,0,4.17,3.39,7.57,7.56,7.57s7.56-3.4,7.56-7.57c0-3.66-2.61-6.71-6.06-7.41v-23.92h9.71c.7,3.45,3.76,6.06,7.42,6.06,4.17,0,7.56-3.39,7.56-7.56s-3.39-7.56-7.56-7.56Zm-34.35-9.39c-.38,0-.76-.04-1.12-.11-2.53-.52-4.44-2.77-4.44-5.46,0-3.06,2.49-5.56,5.56-5.56s5.56,2.5,5.56,5.56c0,2.69-1.91,4.94-4.44,5.46-.36,.07-.74,.11-1.12,.11Zm.34,31.58c-.65,2.34-2.8,4.06-5.35,4.06-3.07,0-5.56-2.5-5.56-5.56s2.49-5.57,5.56-5.57c2.55,0,4.7,1.72,5.35,4.07,.14,.48,.21,.98,.21,1.5s-.07,1.02-.21,1.5Zm20.94,18.2c0,3.07-2.49,5.57-5.56,5.57s-5.56-2.5-5.56-5.57c0-2.54,1.72-4.7,4.06-5.35,.48-.14,.98-.21,1.5-.21s1.02,.07,1.5,.21c2.34,.65,4.06,2.81,4.06,5.35Zm13.07-27.27c-3.07,0-5.57-2.49-5.57-5.56s2.5-5.56,5.57-5.56,5.56,2.49,5.56,5.56-2.5,5.56-5.56,5.56Z"/>
    <text class="cls-5" transform="translate(0 179.91)"><tspan x="0" y="0">INN</tspan><tspan class="cls-7" x="63.27" y="0">O</tspan><tspan class="cls-6" x="93.82" y="0">V</tspan><tspan class="cls-8" x="116.1" y="0">A</tspan><tspan x="139.81" y="0">TIVE</tspan></text>
    <text class="cls-4" transform="translate(71.82 199.86)"><tspan x="0" y="0">MINDS</tspan></text>
  </g>
</svg>